<?xml version="1.0" standalone="no"?>
<!DOCTYPE svg PUBLIC "-//W3C//DTD SVG 20010904//EN"
 "http://www.w3.org/TR/2001/REC-SVG-20010904/DTD/svg10.dtd">
<svg version="1.0" xmlns="http://www.w3.org/2000/svg"
 width="512.000000pt" height="512.000000pt" viewBox="0 0 512.000000 512.000000"
 preserveAspectRatio="xMidYMid meet">
<metadata>
Created by potrace 1.11, written by Peter Selinger 2001-2013
</metadata>
<g transform="translate(0.000000,512.000000) scale(0.100000,-0.100000)"
fill="#000000" stroke="none">
<path d="M2879 4560 c-61 -29 -77 -43 -100 -84 -26 -46 -33 -130 -16 -177 17
-45 91 -107 140 -116 39 -8 41 -10 53 -63 6 -30 14 -73 17 -95 4 -22 13 -76
22 -120 20 -105 21 -102 -22 -124 -49 -25 -98 -73 -131 -130 -24 -41 -27 -56
-27 -136 0 -68 5 -99 19 -128 10 -21 17 -39 15 -41 -8 -6 -287 -222 -342 -265
-33 -25 -83 -64 -112 -86 -29 -22 -111 -86 -183 -142 l-130 -101 -24 33 c-89
124 -224 212 -361 233 -119 19 -262 -5 -353 -58 l-32 -18 -18 34 c-11 18 -95
162 -187 320 l-168 286 20 22 c75 80 57 214 -38 281 -37 26 -52 30 -106 30
-54 0 -69 -4 -106 -30 -155 -109 -80 -353 106 -347 28 1 58 3 68 4 13 2 60
-70 201 -312 l184 -315 -54 -53 c-120 -118 -183 -312 -154 -470 6 -35 5 -42
-9 -43 -9 -1 -32 -3 -51 -4 -30 -3 -116 -6 -443 -20 -43 -1 -49 1 -66 31 -53
89 -167 91 -228 4 -19 -27 -19 -90 0 -127 27 -51 73 -71 153 -65 25 2 73 47
85 80 6 16 17 22 41 24 18 0 44 2 58 3 14 2 106 6 205 10 99 4 202 8 228 10
l48 4 20 -47 c55 -127 182 -246 314 -293 37 -13 49 -23 48 -36 -1 -10 -5 -43
-8 -73 -4 -30 -8 -62 -10 -70 -2 -8 -7 -35 -10 -60 -3 -25 -12 -85 -20 -135
-15 -95 -20 -129 -30 -210 -11 -82 -11 -82 -66 -89 -210 -28 -258 -306 -69
-402 101 -52 231 -8 285 96 25 48 27 128 5 177 -19 44 -71 99 -101 108 -19 6
-20 15 -3 115 10 62 12 74 18 115 3 22 10 72 15 110 6 39 13 88 16 110 3 22 7
49 10 60 2 11 7 43 10 70 11 87 7 84 93 83 153 -3 277 48 388 157 86 85 132
169 161 295 14 64 -6 272 -28 286 -27 17 -2 48 109 134 64 50 131 101 147 114
17 13 138 108 269 210 l239 185 30 -25 c75 -63 195 -89 280 -59 l38 13 60
-124 c32 -69 59 -126 59 -128 0 -2 29 -64 64 -137 35 -74 75 -159 89 -189 14
-30 44 -95 67 -145 46 -98 62 -138 60 -144 -1 -2 2 -7 7 -10 4 -3 25 -40 45
-83 l37 -76 -27 -19 c-88 -60 -169 -173 -188 -263 -28 -131 12 -283 97 -374
l28 -30 -42 -46 c-36 -39 -99 -110 -176 -199 -17 -20 -25 -22 -44 -14 -33 15
-118 13 -152 -5 -88 -44 -129 -153 -90 -244 17 -43 75 -96 113 -103 15 -4 35
-8 44 -10 60 -11 149 39 183 105 29 56 23 137 -15 190 -18 25 -18 26 17 65 47
55 133 153 169 194 l30 34 45 -25 c88 -49 211 -65 302 -40 l37 10 145 -290
146 -289 -30 -35 c-73 -82 -42 -207 62 -254 123 -55 257 72 213 200 -24 71
-80 110 -160 111 l-41 0 -140 282 c-77 155 -141 285 -142 288 -1 4 15 18 37
33 84 56 148 140 175 231 15 54 21 162 10 205 -4 14 -7 31 -8 38 -1 7 36 33
83 58 47 25 130 69 185 99 93 50 102 52 125 40 71 -40 150 2 158 84 3 40 0 52
-22 78 -14 16 -24 32 -22 34 12 12 -89 7 -113 -5 -34 -18 -62 -73 -56 -108 4
-23 -5 -30 -123 -92 -70 -37 -134 -71 -142 -76 -23 -15 -89 -50 -92 -50 -2 0
-23 27 -47 59 -99 137 -274 203 -430 163 -29 -7 -54 -12 -56 -10 -4 5 -125
260 -125 264 0 2 -27 61 -61 131 -33 71 -68 144 -76 163 -16 34 -47 100 -153
325 -79 167 -76 152 -32 194 21 20 48 57 60 82 27 55 43 168 28 192 -7 11 -7
20 -1 25 6 5 138 49 295 97 157 48 333 102 392 121 l106 33 36 -32 c96 -88
241 -6 220 125 -6 38 -56 98 -81 98 -7 0 -13 4 -13 9 0 12 -89 -6 -116 -24
-29 -18 -46 -49 -53 -94 l-6 -34 -155 -47 c-85 -26 -267 -83 -405 -125 -181
-56 -251 -73 -254 -64 -2 7 -22 33 -45 57 -53 58 -132 94 -208 95 l-57 1 -6
40 c-3 23 -15 88 -26 145 -11 57 -18 110 -15 117 3 7 1 16 -4 19 -6 4 -10 14
-10 24 0 19 72 65 85 53 5 -4 5 -2 2 4 -4 6 2 19 13 29 49 45 62 153 26 223
-18 34 -69 80 -105 93 -44 17 -107 17 -142 -1z"/>
</g>
</svg>
